<svg width="50" height="50" viewBox="0 0 50 50" fill="none" xmlns="http://www.w3.org/2000/svg">
<path d="M12.5 45.8334V8.33341C12.5 7.77091 12.5 7.18758 12.6458 6.62508C12.7733 6.06389 13.0557 5.5497 13.4608 5.14093C13.8659 4.73215 14.3775 4.44517 14.9375 4.31258C15.5417 4.16675 18.1875 4.16675 18.75 4.16675H33.3333C33.8958 4.16675 34.4792 4.16675 35.0417 4.31258C35.6029 4.4401 36.117 4.72244 36.5258 5.12753C36.9346 5.53262 37.2216 6.04423 37.3542 6.60425C37.5 7.18758 37.5 7.77091 37.5 8.33341V45.8334H12.5Z" stroke="#1733B8" stroke-width="2" stroke-linecap="round" stroke-linejoin="round"/>
<path d="M4.16674 29.1667V41.6667C4.16674 43.9583 6.04174 45.8333 8.33341 45.8333H12.5001V25H8.33341C7.77091 25 7.18757 25 6.62507 25.1458C6.06257 25.2917 5.54174 25.5625 5.12507 25.9792C4.72924 26.375 4.45841 26.8958 4.31257 27.4583C4.19497 28.0198 4.146 28.5934 4.16674 29.1667Z" stroke="#1733B8" stroke-width="2" stroke-linecap="round" stroke-linejoin="round"/>
<path d="M43.375 18.8958C42.8136 18.7782 42.2399 18.7293 41.6667 18.75H37.5V45.8333H41.6667C42.7717 45.8333 43.8315 45.3943 44.6129 44.6129C45.3943 43.8315 45.8333 42.7717 45.8333 41.6667V22.9167C45.8333 22.3333 45.8333 21.7708 45.6875 21.2083C45.5417 20.6458 45.2708 20.125 44.8542 19.7083C44.4583 19.3125 43.9375 19.0417 43.375 18.8958V18.8958Z" stroke="#1733B8" stroke-width="2" stroke-linecap="round" stroke-linejoin="round"/>
<path d="M20.833 12.5H29.1663" stroke="#1733B8" stroke-width="2" stroke-linecap="round" stroke-linejoin="round"/>
<path d="M21 13H29.3333" stroke="#1733B8" stroke-width="2" stroke-linecap="round" stroke-linejoin="round"/>
<path d="M20.833 29.1667H29.1663" stroke="#1733B8" stroke-width="2" stroke-linecap="round" stroke-linejoin="round"/>
<path d="M20.833 37.5H29.1663" stroke="#1733B8" stroke-width="2" stroke-linecap="round" stroke-linejoin="round"/>
</svg>
