<svg width="50" height="51" viewBox="0 0 50 51" fill="none" xmlns="http://www.w3.org/2000/svg">
<path d="M40.4975 16.8543C40.3954 17.5251 40.6204 18.2043 41.0996 18.6834L44.3663 21.9501C45.3454 22.9293 45.8371 24.2147 45.8371 25.5001C45.8371 26.7855 45.3475 28.0689 44.3663 29.0501L41.01 32.4063C40.7845 32.6317 40.5092 32.8011 40.2064 32.9009C39.9036 33.0008 39.5816 33.0283 39.2663 32.9813C38.2871 32.8355 37.5954 31.9814 37.2496 31.0543C36.9462 30.2351 36.4416 29.5053 35.7824 28.9321C35.1231 28.3589 34.3303 27.9607 33.4769 27.774C32.6235 27.5874 31.7368 27.6183 30.8985 27.8639C30.0601 28.1096 29.297 28.5621 28.6793 29.1798C28.0616 29.7975 27.6091 30.5606 27.3634 31.399C27.1178 32.2373 27.0869 33.124 27.2735 33.9774C27.4602 34.8308 27.8584 35.6236 28.4316 36.2829C29.0048 36.9421 29.7346 37.4467 30.5538 37.7501C31.4829 38.0959 32.335 38.7855 32.4809 39.7668C32.528 40.0821 32.5005 40.4042 32.4007 40.707C32.3008 41.0098 32.1313 41.285 31.9059 41.5105L28.5517 44.8647C28.0859 45.3321 27.5322 45.7029 26.9226 45.9556C26.3131 46.2084 25.6595 46.3382 24.9996 46.3376C24.3402 46.3384 23.687 46.2089 23.0778 45.9565C22.4686 45.7041 21.9152 45.3338 21.4496 44.8668L18.1829 41.6001C17.9468 41.3636 17.6586 41.1857 17.3412 41.0808C17.0239 40.9759 16.6864 40.9468 16.3559 40.9959C15.3288 41.1501 14.6059 42.0459 14.2309 43.0126C13.9165 43.8194 13.406 44.5351 12.7455 45.0949C12.085 45.6548 11.2954 46.0412 10.448 46.2191C9.60062 46.397 8.72225 46.3608 7.89236 46.1139C7.06247 45.8669 6.30724 45.417 5.69498 44.8047C5.08273 44.1925 4.63278 43.4372 4.38583 42.6074C4.13887 41.7775 4.10272 40.8991 4.28063 40.0517C4.45854 39.2043 4.8449 38.4147 5.40476 37.7542C5.96463 37.0937 6.68032 36.5832 7.48711 36.2689C8.45378 35.8939 9.34961 35.1709 9.5017 34.1439C9.5511 33.8134 9.52238 33.476 9.41781 33.1587C9.31325 32.8414 9.13577 32.5531 8.89961 32.3168L5.63295 29.0501C5.16596 28.5845 4.79562 28.0311 4.5432 27.4219C4.29078 26.8127 4.16127 26.1596 4.16211 25.5001C4.16211 24.2147 4.65378 22.9293 5.63295 21.9501L8.81211 18.7709C9.31211 18.2709 10.0225 18.0355 10.7225 18.1397C11.7954 18.3001 12.5496 19.2397 12.9579 20.2439C13.2823 21.0392 13.7983 21.7419 14.4601 22.2895C15.1218 22.8371 15.9087 23.2125 16.7506 23.3824C17.5926 23.5522 18.4634 23.5112 19.2857 23.263C20.108 23.0148 20.8561 22.5671 21.4634 21.9598C22.0708 21.3524 22.5185 20.6043 22.7667 19.782C23.0149 18.9598 23.0559 18.0889 22.8861 17.2469C22.7162 16.405 22.3408 15.6181 21.7932 14.9564C21.2456 14.2947 20.5428 13.7786 19.7475 13.4543C18.7434 13.0459 17.8038 12.2918 17.6434 11.2189C17.5392 10.5189 17.7725 9.81052 18.2746 9.30844L21.4517 6.13135C21.9172 5.66499 22.4703 5.29518 23.0792 5.04313C23.688 4.79108 24.3407 4.66176 24.9996 4.6626C26.285 4.6626 27.5704 5.15427 28.5496 6.13343L31.8163 9.4001C32.2954 9.87927 32.9746 10.1043 33.6434 10.0043C34.6704 9.8501 35.3934 8.95427 35.7684 7.9876C36.0827 7.18081 36.5932 6.46511 37.2537 5.90525C37.9142 5.34539 38.7038 4.95903 39.5512 4.78112C40.3986 4.60321 41.277 4.63936 42.1069 4.88631C42.9368 5.13326 43.692 5.58322 44.3042 6.19547C44.9165 6.80772 45.3664 7.56296 45.6134 8.39285C45.8603 9.22274 45.8965 10.1011 45.7186 10.9485C45.5407 11.7959 45.1543 12.5855 44.5945 13.246C44.0346 13.9065 43.3189 14.417 42.5121 14.7314C41.5454 15.1064 40.6496 15.8293 40.4975 16.8564V16.8543Z" stroke="#573CE3" stroke-width="2" stroke-linecap="round" stroke-linejoin="round"/>
</svg>
