<svg width="50" height="50" viewBox="0 0 50 50" fill="none" xmlns="http://www.w3.org/2000/svg">
<path d="M8.33301 20.8334V8.33342C8.33301 7.22835 8.77199 6.16854 9.5534 5.38714C10.3348 4.60573 11.3946 4.16675 12.4997 4.16675H30.208L41.6663 15.6251V41.6668C41.6663 42.7718 41.2274 43.8316 40.446 44.613C39.6645 45.3944 38.6047 45.8334 37.4997 45.8334H8.33301" stroke="#8844F7" stroke-width="2" stroke-linecap="round" stroke-linejoin="round"/>
<path d="M29.167 4.16675V16.6667H41.667" stroke="#8844F7" stroke-width="2" stroke-linecap="round" stroke-linejoin="round"/>
<path d="M8.33366 37.5001C10.6348 37.5001 12.5003 35.6346 12.5003 33.3334C12.5003 31.0322 10.6348 29.1667 8.33366 29.1667C6.03247 29.1667 4.16699 31.0322 4.16699 33.3334C4.16699 35.6346 6.03247 37.5001 8.33366 37.5001Z" stroke="#8844F7" stroke-width="2" stroke-linecap="round" stroke-linejoin="round"/>
<path d="M20.833 20.8333L11.458 30.2083" stroke="#8844F7" stroke-width="2" stroke-linecap="round" stroke-linejoin="round"/>
<path d="M18.75 22.9167L20.8333 25.0001" stroke="#8844F7" stroke-width="2" stroke-linecap="round" stroke-linejoin="round"/>
</svg>
