<svg width="70" height="70" viewBox="0 0 70 70" fill="none" xmlns="http://www.w3.org/2000/svg">
<path d="M11.667 20.4167V11.6667C11.667 10.1196 12.2816 8.63588 13.3755 7.54192C14.4695 6.44796 15.9532 5.83337 17.5003 5.83337H42.292L58.3337 21.875V58.3334C58.3337 59.8805 57.7191 61.3642 56.6251 62.4582C55.5312 63.5521 54.0474 64.1667 52.5003 64.1667H35.0003" stroke="white" stroke-width="5" stroke-linecap="round" stroke-linejoin="round"/>
<path d="M40.833 5.83337V23.3334H58.333" stroke="white" stroke-width="5" stroke-linecap="round" stroke-linejoin="round"/>
<path d="M14.583 49.5834C15.7321 49.5834 16.8699 49.357 17.9315 48.9173C18.9931 48.4776 19.9577 47.8331 20.7702 47.0206C21.5827 46.208 22.2272 45.2435 22.667 44.1819C23.1067 43.1203 23.333 41.9824 23.333 40.8334C23.333 39.6843 23.1067 38.5465 22.667 37.4849C22.2272 36.4233 21.5827 35.4587 20.7702 34.6462C19.9577 33.8337 18.9931 33.1892 17.9315 32.7494C16.8699 32.3097 15.7321 32.0834 14.583 32.0834C12.2624 32.0834 10.0368 33.0052 8.39582 34.6462C6.75488 36.2871 5.83301 38.5127 5.83301 40.8334C5.83301 43.154 6.75488 45.3796 8.39582 47.0206C10.0368 48.6615 12.2624 49.5834 14.583 49.5834V49.5834Z" stroke="white" stroke-width="5" stroke-linecap="round" stroke-linejoin="round"/>
<path d="M20.4163 48.125L23.333 64.1667L14.583 61.25L5.83301 64.1667L8.74967 48.125" stroke="white" stroke-width="5" stroke-linecap="round" stroke-linejoin="round"/>
</svg>
