<svg width="50" height="50" viewBox="0 0 50 50" fill="none" xmlns="http://www.w3.org/2000/svg">
<path d="M6.25 6.25V16.6667H16.6667" stroke="white" stroke-width="5" stroke-linecap="round" stroke-linejoin="round"/>
<path d="M6.35417 27.0835C6.81564 31.2623 8.66813 35.1647 11.6141 38.1641C14.5601 41.1635 18.4287 43.0857 22.5985 43.6222C26.7683 44.1586 30.9975 43.278 34.6067 41.1219C38.2159 38.9658 40.9958 35.6593 42.4999 31.7334C44.004 27.8075 44.145 23.49 42.9003 19.4742C41.6556 15.4585 39.0974 11.9777 35.6366 9.59065C32.1757 7.20364 28.0131 6.049 23.8171 6.31218C19.6212 6.57536 15.6354 8.24108 12.5 11.0418L6.25 16.6668" stroke="white" stroke-width="5" stroke-linecap="round" stroke-linejoin="round"/>
<path d="M25 14.5835V25.0002L33.3333 29.1668" stroke="white" stroke-width="5" stroke-linecap="round" stroke-linejoin="round"/>
</svg>
