<svg width="50" height="50" viewBox="0 0 50 50" fill="none" xmlns="http://www.w3.org/2000/svg">
<path d="M41.6665 14.5835H8.33317C6.03198 14.5835 4.1665 16.449 4.1665 18.7502V39.5835C4.1665 41.8847 6.03198 43.7502 8.33317 43.7502H41.6665C43.9677 43.7502 45.8332 41.8847 45.8332 39.5835V18.7502C45.8332 16.449 43.9677 14.5835 41.6665 14.5835Z" stroke="#BDBDBD" stroke-width="5" stroke-linecap="round" stroke-linejoin="round"/>
<path d="M33.3332 43.75V10.4167C33.3332 9.3116 32.8942 8.25179 32.1128 7.47039C31.3314 6.68899 30.2716 6.25 29.1665 6.25H20.8332C19.7281 6.25 18.6683 6.68899 17.8869 7.47039C17.1055 8.25179 16.6665 9.3116 16.6665 10.4167V43.75" stroke="#BDBDBD" stroke-width="5" stroke-linecap="round" stroke-linejoin="round"/>
</svg>
