<svg width="25" height="24" viewBox="0 0 25 24" fill="none" xmlns="http://www.w3.org/2000/svg">
<path d="M5 16.5C3.5 17.76 3 21.5 3 21.5C3 21.5 6.74 21 8 19.5C8.71 18.66 8.7 17.37 7.91 16.59C7.52131 16.219 7.00929 16.0046 6.47223 15.988C5.93516 15.9714 5.41088 16.1537 5 16.5V16.5Z" stroke="#5674F0" stroke-width="2" stroke-linecap="round" stroke-linejoin="round"/>
<path d="M12.5 15L9.5 12C10.0321 10.6194 10.7022 9.29607 11.5 8.05C12.6652 6.18699 14.2876 4.65305 16.213 3.5941C18.1384 2.53514 20.3027 1.98637 22.5 2C22.5 4.72 21.72 9.5 16.5 13C15.2369 13.7987 13.8968 14.4687 12.5 15V15Z" stroke="#5674F0" stroke-width="2" stroke-linecap="round" stroke-linejoin="round"/>
<path d="M9.5 12H4.5C4.5 12 5.05 8.97002 6.5 8.00002C8.12 6.92002 11.5 8.00002 11.5 8.00002" stroke="#5674F0" stroke-width="2" stroke-linecap="round" stroke-linejoin="round"/>
<path d="M12.5 15V20C12.5 20 15.53 19.45 16.5 18C17.58 16.38 16.5 13 16.5 13" stroke="#5674F0" stroke-width="2" stroke-linecap="round" stroke-linejoin="round"/>
</svg>
