<svg width="142" height="10" viewBox="0 0 142 10" fill="none" xmlns="http://www.w3.org/2000/svg">
<path d="M140.5 4.13397C141.167 4.51887 141.167 5.48113 140.5 5.86603L136 8.4641C135.333 8.849 134.5 8.36788 134.5 7.59808L134.5 2.40192C134.5 1.63212 135.333 1.151 136 1.5359L140.5 4.13397Z" fill="white"/>
<path d="M1.5 5.86603C0.833334 5.48113 0.833333 4.51887 1.5 4.13397L6 1.5359C6.66667 1.151 7.5 1.63212 7.5 2.40192L7.5 7.59808C7.5 8.36788 6.66667 8.849 6 8.4641L1.5 5.86603Z" fill="white"/>
<line x1="13" y1="4.5" x2="19" y2="4.5" stroke="white"/>
<line x1="24" y1="4.5" x2="30" y2="4.5" stroke="white"/>
<line x1="35" y1="4.5" x2="41" y2="4.5" stroke="white"/>
<line x1="46" y1="4.5" x2="52" y2="4.5" stroke="white"/>
<line x1="57" y1="4.5" x2="63" y2="4.5" stroke="white"/>
<line x1="68" y1="4.5" x2="74" y2="4.5" stroke="white"/>
<line x1="79" y1="4.5" x2="85" y2="4.5" stroke="white"/>
<line x1="90" y1="4.5" x2="96" y2="4.5" stroke="white"/>
<line x1="101" y1="4.5" x2="107" y2="4.5" stroke="white"/>
<line x1="112" y1="4.5" x2="118" y2="4.5" stroke="white"/>
<line x1="123" y1="4.5" x2="129" y2="4.5" stroke="white"/>
</svg>
