<svg width="25" height="24" viewBox="0 0 25 24" fill="none" xmlns="http://www.w3.org/2000/svg">
<path d="M12.4998 8L3.45982 17.06C3.17048 17.3147 2.93641 17.6259 2.77208 17.9746C2.60774 18.3232 2.51663 18.7019 2.50436 19.0871C2.49209 19.4724 2.55893 19.856 2.70074 20.2144C2.84256 20.5728 3.05634 20.8984 3.32889 21.1709C3.60144 21.4435 3.92697 21.6573 4.28537 21.7991C4.64378 21.9409 5.02745 22.0077 5.4127 21.9955C5.79794 21.9832 6.17659 21.8921 6.52524 21.7277C6.8739 21.5634 7.18516 21.3293 7.43982 21.04L16.4998 12" stroke="#5674F0" stroke-width="2" stroke-linecap="round" stroke-linejoin="round"/>
<path d="M17.5 12C20.2614 12 22.5 9.76142 22.5 7C22.5 4.23858 20.2614 2 17.5 2C14.7386 2 12.5 4.23858 12.5 7C12.5 9.76142 14.7386 12 17.5 12Z" stroke="#5674F0" stroke-width="2" stroke-linecap="round" stroke-linejoin="round"/>
</svg>
